<svg xmlns="http://www.w3.org/2000/svg" viewBox="0 0 720 424" width="720" height="424"
    font-family="Segoe UI, Helvetica, Arial, sans-serif" role="img" aria-labelledby="titel">
    <title id="titel">Dezelfde harde schijf voor en na het defragmenteren</title>
    <rect width="720" height="424" fill="#ffffff" />

    <defs>
        <marker id="pijl" viewBox="0 0 10 10" refX="9" refY="5" markerWidth="7" markerHeight="7" orient="auto">
            <path d="M0 0 L10 5 L0 10 z" fill="#004d40" />
        </marker>
    </defs>

    <text x="40" y="28" font-size="13" fill="#555">Voor het defragmenteren: de stukken staan door elkaar</text>
    <g fill="#f0f2f2"><rect x="40" y="38" width="12" height="12" /><rect x="79" y="38" width="12" height="12" /><rect x="183" y="38" width="12" height="12" /><rect x="222" y="38" width="12" height="12" /><rect x="235" y="38" width="12" height="12" /><rect x="274" y="38" width="12" height="12" /><rect x="339" y="38" width="12" height="12" /><rect x="391" y="38" width="12" height="12" /><rect x="417" y="38" width="12" height="12" /><rect x="547" y="38" width="12" height="12" /><rect x="573" y="38" width="12" height="12" /><rect x="599" y="38" width="12" height="12" /><rect x="625" y="38" width="12" height="12" /><rect x="651" y="38" width="12" height="12" /><rect x="40" y="51" width="12" height="12" /><rect x="53" y="51" width="12" height="12" /><rect x="157" y="51" width="12" height="12" /><rect x="183" y="51" width="12" height="12" /><rect x="209" y="51" width="12" height="12" /><rect x="235" y="51" width="12" height="12" /><rect x="248" y="51" width="12" height="12" /><rect x="300" y="51" width="12" height="12" /><rect x="326" y="51" width="12" height="12" /><rect x="352" y="51" width="12" height="12" /><rect x="378" y="51" width="12" height="12" /><rect x="456" y="51" width="12" height="12" /><rect x="495" y="51" width="12" height="12" /><rect x="534" y="51" width="12" height="12" /><rect x="560" y="51" width="12" height="12" /><rect x="612" y="51" width="12" height="12" /><rect x="625" y="51" width="12" height="12" /><rect x="638" y="51" width="12" height="12" /><rect x="40" y="64" width="12" height="12" /><rect x="66" y="64" width="12" height="12" /><rect x="79" y="64" width="12" height="12" /><rect x="92" y="64" width="12" height="12" /><rect x="105" y="64" width="12" height="12" /><rect x="118" y="64" width="12" height="12" /><rect x="183" y="64" width="12" height="12" /><rect x="196" y="64" width="12" height="12" /><rect x="274" y="64" width="12" height="12" /><rect x="417" y="64" width="12" height="12" /><rect x="443" y="64" width="12" height="12" /><rect x="456" y="64" width="12" height="12" /><rect x="482" y="64" width="12" height="12" /><rect x="495" y="64" width="12" height="12" /><rect x="521" y="64" width="12" height="12" /><rect x="547" y="64" width="12" height="12" /><rect x="560" y="64" width="12" height="12" /><rect x="573" y="64" width="12" height="12" /><rect x="599" y="64" width="12" height="12" /><rect x="209" y="77" width="12" height="12" /><rect x="235" y="77" width="12" height="12" /><rect x="287" y="77" width="12" height="12" /><rect x="313" y="77" width="12" height="12" /><rect x="352" y="77" width="12" height="12" /><rect x="378" y="77" width="12" height="12" /><rect x="391" y="77" width="12" height="12" /><rect x="534" y="77" width="12" height="12" /><rect x="560" y="77" width="12" height="12" /><rect x="573" y="77" width="12" height="12" /><rect x="599" y="77" width="12" height="12" /><rect x="625" y="77" width="12" height="12" /><rect x="651" y="77" width="12" height="12" /><rect x="40" y="90" width="12" height="12" /><rect x="53" y="90" width="12" height="12" /><rect x="66" y="90" width="12" height="12" /><rect x="131" y="90" width="12" height="12" /><rect x="144" y="90" width="12" height="12" /><rect x="183" y="90" width="12" height="12" /><rect x="196" y="90" width="12" height="12" /><rect x="222" y="90" width="12" height="12" /><rect x="248" y="90" width="12" height="12" /><rect x="261" y="90" width="12" height="12" /><rect x="274" y="90" width="12" height="12" /><rect x="287" y="90" width="12" height="12" /><rect x="339" y="90" width="12" height="12" /><rect x="508" y="90" width="12" height="12" /><rect x="534" y="90" width="12" height="12" /><rect x="547" y="90" width="12" height="12" /><rect x="599" y="90" width="12" height="12" /><rect x="79" y="103" width="12" height="12" /><rect x="105" y="103" width="12" height="12" /><rect x="131" y="103" width="12" height="12" /><rect x="144" y="103" width="12" height="12" /><rect x="157" y="103" width="12" height="12" /><rect x="170" y="103" width="12" height="12" /><rect x="183" y="103" width="12" height="12" /><rect x="222" y="103" width="12" height="12" /><rect x="248" y="103" width="12" height="12" /><rect x="261" y="103" width="12" height="12" /><rect x="313" y="103" width="12" height="12" /><rect x="339" y="103" width="12" height="12" /><rect x="352" y="103" width="12" height="12" /><rect x="391" y="103" width="12" height="12" /><rect x="404" y="103" width="12" height="12" /><rect x="430" y="103" width="12" height="12" /><rect x="599" y="103" width="12" height="12" /><rect x="625" y="103" width="12" height="12" /><rect x="40" y="116" width="12" height="12" /><rect x="105" y="116" width="12" height="12" /><rect x="118" y="116" width="12" height="12" /><rect x="170" y="116" width="12" height="12" /><rect x="183" y="116" width="12" height="12" /><rect x="196" y="116" width="12" height="12" /><rect x="209" y="116" width="12" height="12" /><rect x="248" y="116" width="12" height="12" /><rect x="261" y="116" width="12" height="12" /><rect x="274" y="116" width="12" height="12" /><rect x="287" y="116" width="12" height="12" /><rect x="300" y="116" width="12" height="12" /><rect x="339" y="116" width="12" height="12" /><rect x="352" y="116" width="12" height="12" /><rect x="404" y="116" width="12" height="12" /><rect x="417" y="116" width="12" height="12" /><rect x="599" y="116" width="12" height="12" /><rect x="638" y="116" width="12" height="12" /><rect x="651" y="116" width="12" height="12" /><rect x="53" y="129" width="12" height="12" /><rect x="79" y="129" width="12" height="12" /><rect x="157" y="129" width="12" height="12" /><rect x="183" y="129" width="12" height="12" /><rect x="300" y="129" width="12" height="12" /><rect x="313" y="129" width="12" height="12" /><rect x="326" y="129" width="12" height="12" /><rect x="443" y="129" width="12" height="12" /><rect x="469" y="129" width="12" height="12" /><rect x="521" y="129" width="12" height="12" /><rect x="534" y="129" width="12" height="12" /><rect x="560" y="129" width="12" height="12" /><rect x="573" y="129" width="12" height="12" /><rect x="599" y="129" width="12" height="12" /><rect x="651" y="129" width="12" height="12" /><rect x="53" y="142" width="12" height="12" /><rect x="79" y="142" width="12" height="12" /><rect x="92" y="142" width="12" height="12" /><rect x="105" y="142" width="12" height="12" /><rect x="118" y="142" width="12" height="12" /><rect x="157" y="142" width="12" height="12" /><rect x="170" y="142" width="12" height="12" /><rect x="183" y="142" width="12" height="12" /><rect x="196" y="142" width="12" height="12" /><rect x="222" y="142" width="12" height="12" /><rect x="235" y="142" width="12" height="12" /><rect x="261" y="142" width="12" height="12" /><rect x="274" y="142" width="12" height="12" /><rect x="287" y="142" width="12" height="12" /><rect x="326" y="142" width="12" height="12" /><rect x="352" y="142" width="12" height="12" /><rect x="365" y="142" width="12" height="12" /><rect x="378" y="142" width="12" height="12" /><rect x="391" y="142" width="12" height="12" /><rect x="417" y="142" width="12" height="12" /><rect x="443" y="142" width="12" height="12" /><rect x="456" y="142" width="12" height="12" /><rect x="482" y="142" width="12" height="12" /><rect x="495" y="142" width="12" height="12" /><rect x="508" y="142" width="12" height="12" /><rect x="521" y="142" width="12" height="12" /><rect x="599" y="142" width="12" height="12" /><rect x="625" y="142" width="12" height="12" /><rect x="651" y="142" width="12" height="12" /></g>
    <g fill="#b2dfdb"><rect x="53" y="38" width="12" height="12" /><rect x="66" y="38" width="12" height="12" /><rect x="92" y="38" width="12" height="12" /><rect x="105" y="38" width="12" height="12" /><rect x="196" y="38" width="12" height="12" /><rect x="209" y="38" width="12" height="12" /><rect x="248" y="38" width="12" height="12" /><rect x="261" y="38" width="12" height="12" /><rect x="287" y="38" width="12" height="12" /><rect x="300" y="38" width="12" height="12" /><rect x="313" y="38" width="12" height="12" /><rect x="326" y="38" width="12" height="12" /><rect x="352" y="38" width="12" height="12" /><rect x="365" y="38" width="12" height="12" /><rect x="378" y="38" width="12" height="12" /><rect x="404" y="38" width="12" height="12" /><rect x="430" y="38" width="12" height="12" /><rect x="443" y="38" width="12" height="12" /><rect x="456" y="38" width="12" height="12" /><rect x="469" y="38" width="12" height="12" /><rect x="482" y="38" width="12" height="12" /><rect x="495" y="38" width="12" height="12" /><rect x="508" y="38" width="12" height="12" /><rect x="521" y="38" width="12" height="12" /><rect x="534" y="38" width="12" height="12" /><rect x="560" y="38" width="12" height="12" /><rect x="586" y="38" width="12" height="12" /><rect x="612" y="38" width="12" height="12" /><rect x="638" y="38" width="12" height="12" /><rect x="66" y="51" width="12" height="12" /><rect x="79" y="51" width="12" height="12" /><rect x="92" y="51" width="12" height="12" /><rect x="105" y="51" width="12" height="12" /><rect x="118" y="51" width="12" height="12" /><rect x="131" y="51" width="12" height="12" /><rect x="144" y="51" width="12" height="12" /><rect x="170" y="51" width="12" height="12" /><rect x="196" y="51" width="12" height="12" /><rect x="222" y="51" width="12" height="12" /><rect x="261" y="51" width="12" height="12" /><rect x="274" y="51" width="12" height="12" /><rect x="287" y="51" width="12" height="12" /><rect x="313" y="51" width="12" height="12" /><rect x="339" y="51" width="12" height="12" /><rect x="365" y="51" width="12" height="12" /><rect x="391" y="51" width="12" height="12" /><rect x="404" y="51" width="12" height="12" /><rect x="417" y="51" width="12" height="12" /><rect x="430" y="51" width="12" height="12" /><rect x="443" y="51" width="12" height="12" /><rect x="469" y="51" width="12" height="12" /><rect x="482" y="51" width="12" height="12" /><rect x="508" y="51" width="12" height="12" /><rect x="521" y="51" width="12" height="12" /><rect x="547" y="51" width="12" height="12" /><rect x="573" y="51" width="12" height="12" /><rect x="586" y="51" width="12" height="12" /><rect x="599" y="51" width="12" height="12" /><rect x="651" y="51" width="12" height="12" /><rect x="53" y="64" width="12" height="12" /><rect x="131" y="64" width="12" height="12" /><rect x="144" y="64" width="12" height="12" /><rect x="157" y="64" width="12" height="12" /><rect x="170" y="64" width="12" height="12" /><rect x="209" y="64" width="12" height="12" /><rect x="222" y="64" width="12" height="12" /><rect x="235" y="64" width="12" height="12" /><rect x="248" y="64" width="12" height="12" /><rect x="261" y="64" width="12" height="12" /><rect x="287" y="64" width="12" height="12" /><rect x="300" y="64" width="12" height="12" /><rect x="391" y="64" width="12" height="12" /><rect x="404" y="64" width="12" height="12" /><rect x="430" y="64" width="12" height="12" /><rect x="469" y="64" width="12" height="12" /><rect x="508" y="64" width="12" height="12" /><rect x="534" y="64" width="12" height="12" /><rect x="586" y="64" width="12" height="12" /><rect x="612" y="64" width="12" height="12" /><rect x="625" y="64" width="12" height="12" /><rect x="638" y="64" width="12" height="12" /><rect x="651" y="64" width="12" height="12" /><rect x="40" y="77" width="12" height="12" /><rect x="53" y="77" width="12" height="12" /><rect x="66" y="77" width="12" height="12" /><rect x="79" y="77" width="12" height="12" /><rect x="92" y="77" width="12" height="12" /><rect x="105" y="77" width="12" height="12" /><rect x="118" y="77" width="12" height="12" /><rect x="131" y="77" width="12" height="12" /><rect x="144" y="77" width="12" height="12" /><rect x="157" y="77" width="12" height="12" /><rect x="170" y="77" width="12" height="12" /><rect x="183" y="77" width="12" height="12" /><rect x="196" y="77" width="12" height="12" /><rect x="222" y="77" width="12" height="12" /><rect x="248" y="77" width="12" height="12" /><rect x="261" y="77" width="12" height="12" /><rect x="274" y="77" width="12" height="12" /><rect x="300" y="77" width="12" height="12" /><rect x="326" y="77" width="12" height="12" /><rect x="339" y="77" width="12" height="12" /><rect x="365" y="77" width="12" height="12" /><rect x="404" y="77" width="12" height="12" /><rect x="417" y="77" width="12" height="12" /><rect x="430" y="77" width="12" height="12" /><rect x="443" y="77" width="12" height="12" /><rect x="456" y="77" width="12" height="12" /><rect x="469" y="77" width="12" height="12" /><rect x="482" y="77" width="12" height="12" /><rect x="495" y="77" width="12" height="12" /><rect x="508" y="77" width="12" height="12" /><rect x="521" y="77" width="12" height="12" /><rect x="547" y="77" width="12" height="12" /><rect x="586" y="77" width="12" height="12" /><rect x="612" y="77" width="12" height="12" /><rect x="638" y="77" width="12" height="12" /><rect x="157" y="90" width="12" height="12" /><rect x="170" y="90" width="12" height="12" /><rect x="209" y="90" width="12" height="12" /><rect x="235" y="90" width="12" height="12" /><rect x="300" y="90" width="12" height="12" /><rect x="313" y="90" width="12" height="12" /><rect x="326" y="90" width="12" height="12" /><rect x="352" y="90" width="12" height="12" /><rect x="365" y="90" width="12" height="12" /><rect x="378" y="90" width="12" height="12" /><rect x="391" y="90" width="12" height="12" /><rect x="404" y="90" width="12" height="12" /><rect x="417" y="90" width="12" height="12" /><rect x="430" y="90" width="12" height="12" /><rect x="443" y="90" width="12" height="12" /><rect x="456" y="90" width="12" height="12" /><rect x="469" y="90" width="12" height="12" /><rect x="482" y="90" width="12" height="12" /><rect x="495" y="90" width="12" height="12" /><rect x="521" y="90" width="12" height="12" /><rect x="560" y="90" width="12" height="12" /><rect x="573" y="90" width="12" height="12" /><rect x="586" y="90" width="12" height="12" /><rect x="612" y="90" width="12" height="12" /><rect x="625" y="90" width="12" height="12" /><rect x="638" y="90" width="12" height="12" /><rect x="651" y="90" width="12" height="12" /><rect x="40" y="103" width="12" height="12" /><rect x="53" y="103" width="12" height="12" /><rect x="66" y="103" width="12" height="12" /><rect x="92" y="103" width="12" height="12" /><rect x="118" y="103" width="12" height="12" /><rect x="196" y="103" width="12" height="12" /><rect x="209" y="103" width="12" height="12" /><rect x="235" y="103" width="12" height="12" /><rect x="274" y="103" width="12" height="12" /><rect x="287" y="103" width="12" height="12" /><rect x="300" y="103" width="12" height="12" /><rect x="326" y="103" width="12" height="12" /><rect x="365" y="103" width="12" height="12" /><rect x="378" y="103" width="12" height="12" /><rect x="417" y="103" width="12" height="12" /><rect x="443" y="103" width="12" height="12" /><rect x="456" y="103" width="12" height="12" /><rect x="534" y="103" width="12" height="12" /><rect x="547" y="103" width="12" height="12" /><rect x="560" y="103" width="12" height="12" /><rect x="573" y="103" width="12" height="12" /><rect x="586" y="103" width="12" height="12" /><rect x="612" y="103" width="12" height="12" /><rect x="638" y="103" width="12" height="12" /><rect x="651" y="103" width="12" height="12" /><rect x="53" y="116" width="12" height="12" /><rect x="66" y="116" width="12" height="12" /><rect x="79" y="116" width="12" height="12" /><rect x="92" y="116" width="12" height="12" /><rect x="131" y="116" width="12" height="12" /><rect x="144" y="116" width="12" height="12" /><rect x="157" y="116" width="12" height="12" /><rect x="222" y="116" width="12" height="12" /><rect x="235" y="116" width="12" height="12" /><rect x="313" y="116" width="12" height="12" /><rect x="326" y="116" width="12" height="12" /><rect x="365" y="116" width="12" height="12" /><rect x="378" y="116" width="12" height="12" /><rect x="391" y="116" width="12" height="12" /><rect x="430" y="116" width="12" height="12" /><rect x="443" y="116" width="12" height="12" /><rect x="456" y="116" width="12" height="12" /><rect x="469" y="116" width="12" height="12" /><rect x="482" y="116" width="12" height="12" /><rect x="495" y="116" width="12" height="12" /><rect x="508" y="116" width="12" height="12" /><rect x="521" y="116" width="12" height="12" /><rect x="534" y="116" width="12" height="12" /><rect x="547" y="116" width="12" height="12" /><rect x="560" y="116" width="12" height="12" /><rect x="573" y="116" width="12" height="12" /><rect x="586" y="116" width="12" height="12" /><rect x="612" y="116" width="12" height="12" /><rect x="625" y="116" width="12" height="12" /><rect x="40" y="129" width="12" height="12" /><rect x="66" y="129" width="12" height="12" /><rect x="92" y="129" width="12" height="12" /><rect x="105" y="129" width="12" height="12" /><rect x="118" y="129" width="12" height="12" /><rect x="131" y="129" width="12" height="12" /><rect x="144" y="129" width="12" height="12" /><rect x="170" y="129" width="12" height="12" /><rect x="248" y="129" width="12" height="12" /><rect x="261" y="129" width="12" height="12" /><rect x="274" y="129" width="12" height="12" /><rect x="287" y="129" width="12" height="12" /><rect x="339" y="129" width="12" height="12" /><rect x="352" y="129" width="12" height="12" /><rect x="365" y="129" width="12" height="12" /><rect x="378" y="129" width="12" height="12" /><rect x="391" y="129" width="12" height="12" /><rect x="404" y="129" width="12" height="12" /><rect x="417" y="129" width="12" height="12" /><rect x="430" y="129" width="12" height="12" /><rect x="456" y="129" width="12" height="12" /><rect x="482" y="129" width="12" height="12" /><rect x="495" y="129" width="12" height="12" /><rect x="508" y="129" width="12" height="12" /><rect x="547" y="129" width="12" height="12" /><rect x="586" y="129" width="12" height="12" /><rect x="612" y="129" width="12" height="12" /><rect x="625" y="129" width="12" height="12" /><rect x="638" y="129" width="12" height="12" /><rect x="40" y="142" width="12" height="12" /><rect x="66" y="142" width="12" height="12" /><rect x="131" y="142" width="12" height="12" /><rect x="144" y="142" width="12" height="12" /><rect x="209" y="142" width="12" height="12" /><rect x="248" y="142" width="12" height="12" /><rect x="300" y="142" width="12" height="12" /><rect x="313" y="142" width="12" height="12" /><rect x="339" y="142" width="12" height="12" /><rect x="404" y="142" width="12" height="12" /><rect x="430" y="142" width="12" height="12" /><rect x="469" y="142" width="12" height="12" /><rect x="534" y="142" width="12" height="12" /><rect x="547" y="142" width="12" height="12" /><rect x="560" y="142" width="12" height="12" /><rect x="573" y="142" width="12" height="12" /><rect x="586" y="142" width="12" height="12" /><rect x="612" y="142" width="12" height="12" /><rect x="638" y="142" width="12" height="12" /></g>
    <g fill="#c0392b"><rect x="118" y="38" width="12" height="12" /><rect x="131" y="38" width="12" height="12" /><rect x="144" y="38" width="12" height="12" /><rect x="157" y="38" width="12" height="12" /><rect x="170" y="38" width="12" height="12" /><rect x="313" y="64" width="12" height="12" /><rect x="326" y="64" width="12" height="12" /><rect x="339" y="64" width="12" height="12" /><rect x="352" y="64" width="12" height="12" /><rect x="365" y="64" width="12" height="12" /><rect x="378" y="64" width="12" height="12" /><rect x="79" y="90" width="12" height="12" /><rect x="92" y="90" width="12" height="12" /><rect x="105" y="90" width="12" height="12" /><rect x="118" y="90" width="12" height="12" /><rect x="469" y="103" width="12" height="12" /><rect x="482" y="103" width="12" height="12" /><rect x="495" y="103" width="12" height="12" /><rect x="508" y="103" width="12" height="12" /><rect x="521" y="103" width="12" height="12" /><rect x="196" y="129" width="12" height="12" /><rect x="209" y="129" width="12" height="12" /><rect x="222" y="129" width="12" height="12" /><rect x="235" y="129" width="12" height="12" /></g>
    <text x="663" y="169" font-size="12" fill="#c0392b" text-anchor="end">vakantie.jpg staat in vijf stukken, dus de arm moet vijf keer opnieuw zoeken</text>

    <path d="M351 186 L351 214" stroke="#004d40" stroke-width="2" fill="none" marker-end="url(#pijl)" />
    <text x="363" y="204" font-size="13" fill="#004d40">defragmenteren</text>

    <text x="40" y="240" font-size="13" fill="#555">Na het defragmenteren: alles staat weer netjes achter elkaar</text>
    <g fill="#f0f2f2"><rect x="300" y="315" width="12" height="12" /><rect x="313" y="315" width="12" height="12" /><rect x="326" y="315" width="12" height="12" /><rect x="339" y="315" width="12" height="12" /><rect x="352" y="315" width="12" height="12" /><rect x="365" y="315" width="12" height="12" /><rect x="378" y="315" width="12" height="12" /><rect x="391" y="315" width="12" height="12" /><rect x="404" y="315" width="12" height="12" /><rect x="417" y="315" width="12" height="12" /><rect x="430" y="315" width="12" height="12" /><rect x="443" y="315" width="12" height="12" /><rect x="456" y="315" width="12" height="12" /><rect x="469" y="315" width="12" height="12" /><rect x="482" y="315" width="12" height="12" /><rect x="495" y="315" width="12" height="12" /><rect x="508" y="315" width="12" height="12" /><rect x="521" y="315" width="12" height="12" /><rect x="534" y="315" width="12" height="12" /><rect x="547" y="315" width="12" height="12" /><rect x="560" y="315" width="12" height="12" /><rect x="573" y="315" width="12" height="12" /><rect x="586" y="315" width="12" height="12" /><rect x="599" y="315" width="12" height="12" /><rect x="612" y="315" width="12" height="12" /><rect x="625" y="315" width="12" height="12" /><rect x="638" y="315" width="12" height="12" /><rect x="651" y="315" width="12" height="12" /><rect x="40" y="328" width="12" height="12" /><rect x="53" y="328" width="12" height="12" /><rect x="66" y="328" width="12" height="12" /><rect x="79" y="328" width="12" height="12" /><rect x="92" y="328" width="12" height="12" /><rect x="105" y="328" width="12" height="12" /><rect x="118" y="328" width="12" height="12" /><rect x="131" y="328" width="12" height="12" /><rect x="144" y="328" width="12" height="12" /><rect x="157" y="328" width="12" height="12" /><rect x="170" y="328" width="12" height="12" /><rect x="183" y="328" width="12" height="12" /><rect x="196" y="328" width="12" height="12" /><rect x="209" y="328" width="12" height="12" /><rect x="222" y="328" width="12" height="12" /><rect x="235" y="328" width="12" height="12" /><rect x="248" y="328" width="12" height="12" /><rect x="261" y="328" width="12" height="12" /><rect x="274" y="328" width="12" height="12" /><rect x="287" y="328" width="12" height="12" /><rect x="300" y="328" width="12" height="12" /><rect x="313" y="328" width="12" height="12" /><rect x="326" y="328" width="12" height="12" /><rect x="339" y="328" width="12" height="12" /><rect x="352" y="328" width="12" height="12" /><rect x="365" y="328" width="12" height="12" /><rect x="378" y="328" width="12" height="12" /><rect x="391" y="328" width="12" height="12" /><rect x="404" y="328" width="12" height="12" /><rect x="417" y="328" width="12" height="12" /><rect x="430" y="328" width="12" height="12" /><rect x="443" y="328" width="12" height="12" /><rect x="456" y="328" width="12" height="12" /><rect x="469" y="328" width="12" height="12" /><rect x="482" y="328" width="12" height="12" /><rect x="495" y="328" width="12" height="12" /><rect x="508" y="328" width="12" height="12" /><rect x="521" y="328" width="12" height="12" /><rect x="534" y="328" width="12" height="12" /><rect x="547" y="328" width="12" height="12" /><rect x="560" y="328" width="12" height="12" /><rect x="573" y="328" width="12" height="12" /><rect x="586" y="328" width="12" height="12" /><rect x="599" y="328" width="12" height="12" /><rect x="612" y="328" width="12" height="12" /><rect x="625" y="328" width="12" height="12" /><rect x="638" y="328" width="12" height="12" /><rect x="651" y="328" width="12" height="12" /><rect x="40" y="341" width="12" height="12" /><rect x="53" y="341" width="12" height="12" /><rect x="66" y="341" width="12" height="12" /><rect x="79" y="341" width="12" height="12" /><rect x="92" y="341" width="12" height="12" /><rect x="105" y="341" width="12" height="12" /><rect x="118" y="341" width="12" height="12" /><rect x="131" y="341" width="12" height="12" /><rect x="144" y="341" width="12" height="12" /><rect x="157" y="341" width="12" height="12" /><rect x="170" y="341" width="12" height="12" /><rect x="183" y="341" width="12" height="12" /><rect x="196" y="341" width="12" height="12" /><rect x="209" y="341" width="12" height="12" /><rect x="222" y="341" width="12" height="12" /><rect x="235" y="341" width="12" height="12" /><rect x="248" y="341" width="12" height="12" /><rect x="261" y="341" width="12" height="12" /><rect x="274" y="341" width="12" height="12" /><rect x="287" y="341" width="12" height="12" /><rect x="300" y="341" width="12" height="12" /><rect x="313" y="341" width="12" height="12" /><rect x="326" y="341" width="12" height="12" /><rect x="339" y="341" width="12" height="12" /><rect x="352" y="341" width="12" height="12" /><rect x="365" y="341" width="12" height="12" /><rect x="378" y="341" width="12" height="12" /><rect x="391" y="341" width="12" height="12" /><rect x="404" y="341" width="12" height="12" /><rect x="417" y="341" width="12" height="12" /><rect x="430" y="341" width="12" height="12" /><rect x="443" y="341" width="12" height="12" /><rect x="456" y="341" width="12" height="12" /><rect x="469" y="341" width="12" height="12" /><rect x="482" y="341" width="12" height="12" /><rect x="495" y="341" width="12" height="12" /><rect x="508" y="341" width="12" height="12" /><rect x="521" y="341" width="12" height="12" /><rect x="534" y="341" width="12" height="12" /><rect x="547" y="341" width="12" height="12" /><rect x="560" y="341" width="12" height="12" /><rect x="573" y="341" width="12" height="12" /><rect x="586" y="341" width="12" height="12" /><rect x="599" y="341" width="12" height="12" /><rect x="612" y="341" width="12" height="12" /><rect x="625" y="341" width="12" height="12" /><rect x="638" y="341" width="12" height="12" /><rect x="651" y="341" width="12" height="12" /><rect x="40" y="354" width="12" height="12" /><rect x="53" y="354" width="12" height="12" /><rect x="66" y="354" width="12" height="12" /><rect x="79" y="354" width="12" height="12" /><rect x="92" y="354" width="12" height="12" /><rect x="105" y="354" width="12" height="12" /><rect x="118" y="354" width="12" height="12" /><rect x="131" y="354" width="12" height="12" /><rect x="144" y="354" width="12" height="12" /><rect x="157" y="354" width="12" height="12" /><rect x="170" y="354" width="12" height="12" /><rect x="183" y="354" width="12" height="12" /><rect x="196" y="354" width="12" height="12" /><rect x="209" y="354" width="12" height="12" /><rect x="222" y="354" width="12" height="12" /><rect x="235" y="354" width="12" height="12" /><rect x="248" y="354" width="12" height="12" /><rect x="261" y="354" width="12" height="12" /><rect x="274" y="354" width="12" height="12" /><rect x="287" y="354" width="12" height="12" /><rect x="300" y="354" width="12" height="12" /><rect x="313" y="354" width="12" height="12" /><rect x="326" y="354" width="12" height="12" /><rect x="339" y="354" width="12" height="12" /><rect x="352" y="354" width="12" height="12" /><rect x="365" y="354" width="12" height="12" /><rect x="378" y="354" width="12" height="12" /><rect x="391" y="354" width="12" height="12" /><rect x="404" y="354" width="12" height="12" /><rect x="417" y="354" width="12" height="12" /><rect x="430" y="354" width="12" height="12" /><rect x="443" y="354" width="12" height="12" /><rect x="456" y="354" width="12" height="12" /><rect x="469" y="354" width="12" height="12" /><rect x="482" y="354" width="12" height="12" /><rect x="495" y="354" width="12" height="12" /><rect x="508" y="354" width="12" height="12" /><rect x="521" y="354" width="12" height="12" /><rect x="534" y="354" width="12" height="12" /><rect x="547" y="354" width="12" height="12" /><rect x="560" y="354" width="12" height="12" /><rect x="573" y="354" width="12" height="12" /><rect x="586" y="354" width="12" height="12" /><rect x="599" y="354" width="12" height="12" /><rect x="612" y="354" width="12" height="12" /><rect x="625" y="354" width="12" height="12" /><rect x="638" y="354" width="12" height="12" /><rect x="651" y="354" width="12" height="12" /></g>
    <g fill="#b2dfdb"><rect x="40" y="250" width="12" height="12" /><rect x="53" y="250" width="12" height="12" /><rect x="66" y="250" width="12" height="12" /><rect x="79" y="250" width="12" height="12" /><rect x="92" y="250" width="12" height="12" /><rect x="105" y="250" width="12" height="12" /><rect x="118" y="250" width="12" height="12" /><rect x="131" y="250" width="12" height="12" /><rect x="144" y="250" width="12" height="12" /><rect x="157" y="250" width="12" height="12" /><rect x="170" y="250" width="12" height="12" /><rect x="183" y="250" width="12" height="12" /><rect x="196" y="250" width="12" height="12" /><rect x="209" y="250" width="12" height="12" /><rect x="222" y="250" width="12" height="12" /><rect x="235" y="250" width="12" height="12" /><rect x="248" y="250" width="12" height="12" /><rect x="261" y="250" width="12" height="12" /><rect x="274" y="250" width="12" height="12" /><rect x="287" y="250" width="12" height="12" /><rect x="300" y="250" width="12" height="12" /><rect x="313" y="250" width="12" height="12" /><rect x="326" y="250" width="12" height="12" /><rect x="339" y="250" width="12" height="12" /><rect x="352" y="250" width="12" height="12" /><rect x="365" y="250" width="12" height="12" /><rect x="378" y="250" width="12" height="12" /><rect x="391" y="250" width="12" height="12" /><rect x="404" y="250" width="12" height="12" /><rect x="417" y="250" width="12" height="12" /><rect x="430" y="250" width="12" height="12" /><rect x="443" y="250" width="12" height="12" /><rect x="456" y="250" width="12" height="12" /><rect x="469" y="250" width="12" height="12" /><rect x="482" y="250" width="12" height="12" /><rect x="495" y="250" width="12" height="12" /><rect x="508" y="250" width="12" height="12" /><rect x="521" y="250" width="12" height="12" /><rect x="534" y="250" width="12" height="12" /><rect x="547" y="250" width="12" height="12" /><rect x="560" y="250" width="12" height="12" /><rect x="573" y="250" width="12" height="12" /><rect x="586" y="250" width="12" height="12" /><rect x="599" y="250" width="12" height="12" /><rect x="612" y="250" width="12" height="12" /><rect x="625" y="250" width="12" height="12" /><rect x="638" y="250" width="12" height="12" /><rect x="651" y="250" width="12" height="12" /><rect x="40" y="263" width="12" height="12" /><rect x="53" y="263" width="12" height="12" /><rect x="66" y="263" width="12" height="12" /><rect x="79" y="263" width="12" height="12" /><rect x="92" y="263" width="12" height="12" /><rect x="105" y="263" width="12" height="12" /><rect x="118" y="263" width="12" height="12" /><rect x="131" y="263" width="12" height="12" /><rect x="144" y="263" width="12" height="12" /><rect x="157" y="263" width="12" height="12" /><rect x="170" y="263" width="12" height="12" /><rect x="183" y="263" width="12" height="12" /><rect x="196" y="263" width="12" height="12" /><rect x="209" y="263" width="12" height="12" /><rect x="222" y="263" width="12" height="12" /><rect x="235" y="263" width="12" height="12" /><rect x="248" y="263" width="12" height="12" /><rect x="261" y="263" width="12" height="12" /><rect x="274" y="263" width="12" height="12" /><rect x="287" y="263" width="12" height="12" /><rect x="300" y="263" width="12" height="12" /><rect x="313" y="263" width="12" height="12" /><rect x="326" y="263" width="12" height="12" /><rect x="339" y="263" width="12" height="12" /><rect x="352" y="263" width="12" height="12" /><rect x="365" y="263" width="12" height="12" /><rect x="378" y="263" width="12" height="12" /><rect x="391" y="263" width="12" height="12" /><rect x="404" y="263" width="12" height="12" /><rect x="417" y="263" width="12" height="12" /><rect x="430" y="263" width="12" height="12" /><rect x="443" y="263" width="12" height="12" /><rect x="456" y="263" width="12" height="12" /><rect x="469" y="263" width="12" height="12" /><rect x="482" y="263" width="12" height="12" /><rect x="495" y="263" width="12" height="12" /><rect x="508" y="263" width="12" height="12" /><rect x="521" y="263" width="12" height="12" /><rect x="534" y="263" width="12" height="12" /><rect x="547" y="263" width="12" height="12" /><rect x="560" y="263" width="12" height="12" /><rect x="573" y="263" width="12" height="12" /><rect x="586" y="263" width="12" height="12" /><rect x="599" y="263" width="12" height="12" /><rect x="612" y="263" width="12" height="12" /><rect x="625" y="263" width="12" height="12" /><rect x="638" y="263" width="12" height="12" /><rect x="651" y="263" width="12" height="12" /><rect x="352" y="276" width="12" height="12" /><rect x="365" y="276" width="12" height="12" /><rect x="378" y="276" width="12" height="12" /><rect x="391" y="276" width="12" height="12" /><rect x="404" y="276" width="12" height="12" /><rect x="417" y="276" width="12" height="12" /><rect x="430" y="276" width="12" height="12" /><rect x="443" y="276" width="12" height="12" /><rect x="456" y="276" width="12" height="12" /><rect x="469" y="276" width="12" height="12" /><rect x="482" y="276" width="12" height="12" /><rect x="495" y="276" width="12" height="12" /><rect x="508" y="276" width="12" height="12" /><rect x="521" y="276" width="12" height="12" /><rect x="534" y="276" width="12" height="12" /><rect x="547" y="276" width="12" height="12" /><rect x="560" y="276" width="12" height="12" /><rect x="573" y="276" width="12" height="12" /><rect x="586" y="276" width="12" height="12" /><rect x="599" y="276" width="12" height="12" /><rect x="612" y="276" width="12" height="12" /><rect x="625" y="276" width="12" height="12" /><rect x="638" y="276" width="12" height="12" /><rect x="651" y="276" width="12" height="12" /><rect x="40" y="289" width="12" height="12" /><rect x="53" y="289" width="12" height="12" /><rect x="66" y="289" width="12" height="12" /><rect x="79" y="289" width="12" height="12" /><rect x="92" y="289" width="12" height="12" /><rect x="105" y="289" width="12" height="12" /><rect x="118" y="289" width="12" height="12" /><rect x="131" y="289" width="12" height="12" /><rect x="144" y="289" width="12" height="12" /><rect x="157" y="289" width="12" height="12" /><rect x="170" y="289" width="12" height="12" /><rect x="183" y="289" width="12" height="12" /><rect x="196" y="289" width="12" height="12" /><rect x="209" y="289" width="12" height="12" /><rect x="222" y="289" width="12" height="12" /><rect x="235" y="289" width="12" height="12" /><rect x="248" y="289" width="12" height="12" /><rect x="261" y="289" width="12" height="12" /><rect x="274" y="289" width="12" height="12" /><rect x="287" y="289" width="12" height="12" /><rect x="300" y="289" width="12" height="12" /><rect x="313" y="289" width="12" height="12" /><rect x="326" y="289" width="12" height="12" /><rect x="339" y="289" width="12" height="12" /><rect x="352" y="289" width="12" height="12" /><rect x="365" y="289" width="12" height="12" /><rect x="378" y="289" width="12" height="12" /><rect x="391" y="289" width="12" height="12" /><rect x="404" y="289" width="12" height="12" /><rect x="417" y="289" width="12" height="12" /><rect x="430" y="289" width="12" height="12" /><rect x="443" y="289" width="12" height="12" /><rect x="456" y="289" width="12" height="12" /><rect x="469" y="289" width="12" height="12" /><rect x="482" y="289" width="12" height="12" /><rect x="495" y="289" width="12" height="12" /><rect x="508" y="289" width="12" height="12" /><rect x="521" y="289" width="12" height="12" /><rect x="534" y="289" width="12" height="12" /><rect x="547" y="289" width="12" height="12" /><rect x="560" y="289" width="12" height="12" /><rect x="573" y="289" width="12" height="12" /><rect x="586" y="289" width="12" height="12" /><rect x="599" y="289" width="12" height="12" /><rect x="612" y="289" width="12" height="12" /><rect x="625" y="289" width="12" height="12" /><rect x="638" y="289" width="12" height="12" /><rect x="651" y="289" width="12" height="12" /><rect x="40" y="302" width="12" height="12" /><rect x="53" y="302" width="12" height="12" /><rect x="66" y="302" width="12" height="12" /><rect x="79" y="302" width="12" height="12" /><rect x="92" y="302" width="12" height="12" /><rect x="105" y="302" width="12" height="12" /><rect x="118" y="302" width="12" height="12" /><rect x="131" y="302" width="12" height="12" /><rect x="144" y="302" width="12" height="12" /><rect x="157" y="302" width="12" height="12" /><rect x="170" y="302" width="12" height="12" /><rect x="183" y="302" width="12" height="12" /><rect x="196" y="302" width="12" height="12" /><rect x="209" y="302" width="12" height="12" /><rect x="222" y="302" width="12" height="12" /><rect x="235" y="302" width="12" height="12" /><rect x="248" y="302" width="12" height="12" /><rect x="261" y="302" width="12" height="12" /><rect x="274" y="302" width="12" height="12" /><rect x="287" y="302" width="12" height="12" /><rect x="300" y="302" width="12" height="12" /><rect x="313" y="302" width="12" height="12" /><rect x="326" y="302" width="12" height="12" /><rect x="339" y="302" width="12" height="12" /><rect x="352" y="302" width="12" height="12" /><rect x="365" y="302" width="12" height="12" /><rect x="378" y="302" width="12" height="12" /><rect x="391" y="302" width="12" height="12" /><rect x="404" y="302" width="12" height="12" /><rect x="417" y="302" width="12" height="12" /><rect x="430" y="302" width="12" height="12" /><rect x="443" y="302" width="12" height="12" /><rect x="456" y="302" width="12" height="12" /><rect x="469" y="302" width="12" height="12" /><rect x="482" y="302" width="12" height="12" /><rect x="495" y="302" width="12" height="12" /><rect x="508" y="302" width="12" height="12" /><rect x="521" y="302" width="12" height="12" /><rect x="534" y="302" width="12" height="12" /><rect x="547" y="302" width="12" height="12" /><rect x="560" y="302" width="12" height="12" /><rect x="573" y="302" width="12" height="12" /><rect x="586" y="302" width="12" height="12" /><rect x="599" y="302" width="12" height="12" /><rect x="612" y="302" width="12" height="12" /><rect x="625" y="302" width="12" height="12" /><rect x="638" y="302" width="12" height="12" /><rect x="651" y="302" width="12" height="12" /><rect x="40" y="315" width="12" height="12" /><rect x="53" y="315" width="12" height="12" /><rect x="66" y="315" width="12" height="12" /><rect x="79" y="315" width="12" height="12" /><rect x="92" y="315" width="12" height="12" /><rect x="105" y="315" width="12" height="12" /><rect x="118" y="315" width="12" height="12" /><rect x="131" y="315" width="12" height="12" /><rect x="144" y="315" width="12" height="12" /><rect x="157" y="315" width="12" height="12" /><rect x="170" y="315" width="12" height="12" /><rect x="183" y="315" width="12" height="12" /><rect x="196" y="315" width="12" height="12" /><rect x="209" y="315" width="12" height="12" /><rect x="222" y="315" width="12" height="12" /><rect x="235" y="315" width="12" height="12" /><rect x="248" y="315" width="12" height="12" /><rect x="261" y="315" width="12" height="12" /><rect x="274" y="315" width="12" height="12" /><rect x="287" y="315" width="12" height="12" /></g>
    <g fill="#004d40"><rect x="40" y="276" width="12" height="12" /><rect x="53" y="276" width="12" height="12" /><rect x="66" y="276" width="12" height="12" /><rect x="79" y="276" width="12" height="12" /><rect x="92" y="276" width="12" height="12" /><rect x="105" y="276" width="12" height="12" /><rect x="118" y="276" width="12" height="12" /><rect x="131" y="276" width="12" height="12" /><rect x="144" y="276" width="12" height="12" /><rect x="157" y="276" width="12" height="12" /><rect x="170" y="276" width="12" height="12" /><rect x="183" y="276" width="12" height="12" /><rect x="196" y="276" width="12" height="12" /><rect x="209" y="276" width="12" height="12" /><rect x="222" y="276" width="12" height="12" /><rect x="235" y="276" width="12" height="12" /><rect x="248" y="276" width="12" height="12" /><rect x="261" y="276" width="12" height="12" /><rect x="274" y="276" width="12" height="12" /><rect x="287" y="276" width="12" height="12" /><rect x="300" y="276" width="12" height="12" /><rect x="313" y="276" width="12" height="12" /><rect x="326" y="276" width="12" height="12" /><rect x="339" y="276" width="12" height="12" /></g>
    <text x="663" y="381" font-size="12" fill="#004d40" text-anchor="end">vakantie.jpg staat aaneengesloten, dus de arm zoekt nog één keer</text>

    <rect x="40" y="404" width="12" height="12" fill="#b2dfdb" stroke="#9bb0ac" />
    <text x="58" y="414" font-size="12" fill="#222">andere bestanden</text>
    <rect x="169" y="404" width="12" height="12" fill="#f0f2f2" stroke="#9bb0ac" />
    <text x="187" y="414" font-size="12" fill="#222">vrije ruimte</text>
    <rect x="272" y="404" width="12" height="12" fill="#c0392b" stroke="#9bb0ac" />
    <text x="290" y="414" font-size="12" fill="#222">vakantie.jpg, verspreid</text>
    <rect x="447" y="404" width="12" height="12" fill="#004d40" stroke="#9bb0ac" />
    <text x="465" y="414" font-size="12" fill="#222">vakantie.jpg, aaneengesloten</text>
</svg>
